<svg width="380" height="387" viewBox="0 0 380 387" fill="none" xmlns="http://www.w3.org/2000/svg">
<circle cx="190" cy="197" r="189.5" fill="#FEFEFF" stroke="#C9C9C9"/>
<path d="M348 197C348 284.261 277.261 355 190 355C102.739 355 32 284.261 32 197C32 109.739 102.739 39 190 39C277.261 39 348 109.739 348 197ZM36.74 197C36.74 281.643 105.357 350.26 190 350.26C274.643 350.26 343.26 281.643 343.26 197C343.26 112.357 274.643 43.74 190 43.74C105.357 43.74 36.74 112.357 36.74 197Z" fill="#F3F6F9"/>
<path d="M267.815 331.78C268.469 332.913 269.92 333.303 271.044 332.631C300.793 314.856 323.894 287.777 336.752 255.548C349.903 222.585 351.573 186.154 341.494 152.126C331.414 118.097 310.171 88.4534 281.189 67.9707C252.207 47.4879 217.172 37.3591 181.731 39.2165C146.29 41.0739 112.506 54.8092 85.8234 78.2093C59.1408 101.609 41.1132 133.311 34.6457 168.207C28.1782 203.102 33.6474 239.159 50.1719 270.567C66.3283 301.275 92.1329 325.791 123.577 340.36C124.765 340.91 126.167 340.371 126.7 339.175C127.232 337.979 126.693 336.58 125.505 336.029C95.0337 321.894 70.0274 298.126 54.3668 268.36C38.3379 237.894 33.0329 202.919 39.3064 169.071C45.5798 135.222 63.0665 104.471 88.9487 81.773C114.831 59.075 147.601 45.7517 181.979 43.95C216.357 42.1484 250.34 51.9732 278.453 71.8415C306.566 91.7098 327.171 120.464 336.949 153.472C346.726 186.479 345.106 221.817 332.349 253.792C319.886 285.032 297.501 311.283 268.674 328.526C267.55 329.198 267.161 330.646 267.815 331.78Z" fill="#FF3C5F"/>
<circle cx="184.5" cy="7.5" r="7.5" fill="#FF3C5F"/>
</svg>
