<svg width="480" height="488" viewBox="0 0 480 488" fill="none" xmlns="http://www.w3.org/2000/svg">
<circle cx="240" cy="248" r="239.5" fill="#FEFEFF" stroke="#C9C9C9"/>
<path d="M444 248C444 360.666 352.666 452 240 452C127.334 452 36 360.666 36 248C36 135.334 127.334 44 240 44C352.666 44 444 135.334 444 248ZM42.12 248C42.12 357.286 130.714 445.88 240 445.88C349.286 445.88 437.88 357.286 437.88 248C437.88 138.714 349.286 50.12 240 50.12C130.714 50.12 42.12 138.714 42.12 248Z" fill="#C9C9C9"/>
<circle cx="239.5" cy="7.5" r="7.5" fill="#C9C9C9"/>
</svg>
