<svg width="506" height="268" viewBox="0 0 506 268" fill="none" xmlns="http://www.w3.org/2000/svg">
<path opacity="0.1" d="M333 134C333 178.183 297.183 214 253 214C208.817 214 173 178.183 173 134C173 89.8172 208.817 54 253 54C297.183 54 333 89.8172 333 134ZM193 134C193 167.137 219.863 194 253 194C286.137 194 313 167.137 313 134C313 100.863 286.137 74 253 74C219.863 74 193 100.863 193 134Z" fill="#272727"/>
<path d="M253 204C253 209.523 248.505 214.065 243.026 213.376C225.486 211.172 209.064 203.201 196.431 190.569C181.429 175.566 173 155.217 173 134C173 112.783 181.429 92.4344 196.431 77.4315C209.064 64.799 225.486 56.8276 243.026 54.6239C248.505 53.9355 253 58.4772 253 64C253 69.5228 248.492 73.915 243.046 74.8312C230.825 76.8871 219.452 82.6956 210.574 91.5736C199.321 102.826 193 118.087 193 134C193 149.913 199.321 165.174 210.574 176.426C219.452 185.304 230.825 191.113 243.046 193.169C248.492 194.085 253 198.477 253 204Z" fill="#FF3C5F"/>
<path d="M248.96 143.53C248.96 141.71 249.263 140.123 249.87 138.77C250.477 137.417 251.223 136.203 252.11 135.13C253.043 134.057 254.047 133.077 255.12 132.19C256.193 131.257 257.197 130.347 258.13 129.46C259.063 128.527 259.81 127.547 260.37 126.52C260.977 125.493 261.28 124.303 261.28 122.95C261.28 120.71 260.393 118.89 258.62 117.49C256.847 116.09 254.397 115.39 251.27 115.39C248.47 115.39 246.043 115.857 243.99 116.79C241.937 117.723 240.187 119.1 238.74 120.92L233.63 117.28C235.59 114.807 238.087 112.893 241.12 111.54C244.153 110.14 247.7 109.44 251.76 109.44C255.12 109.44 258.037 109.953 260.51 110.98C262.983 111.96 264.897 113.383 266.25 115.25C267.65 117.07 268.35 119.287 268.35 121.9C268.35 123.86 268.047 125.54 267.44 126.94C266.833 128.34 266.063 129.577 265.13 130.65C264.197 131.723 263.193 132.727 262.12 133.66C261.093 134.593 260.113 135.527 259.18 136.46C258.247 137.393 257.477 138.42 256.87 139.54C256.263 140.66 255.96 141.99 255.96 143.53H248.96ZM252.53 159.42C251.223 159.42 250.127 158.977 249.24 158.09C248.4 157.203 247.98 156.153 247.98 154.94C247.98 153.633 248.4 152.56 249.24 151.72C250.127 150.88 251.223 150.46 252.53 150.46C253.837 150.46 254.91 150.88 255.75 151.72C256.59 152.56 257.01 153.633 257.01 154.94C257.01 156.153 256.59 157.203 255.75 158.09C254.91 158.977 253.837 159.42 252.53 159.42Z" fill="#272727"/>
<path d="M8.36 175.16V159.76L87.12 59H110.88L32.78 159.76L21.56 156.24H144.54V175.16H8.36ZM93.94 213V175.16L94.6 156.24V122.8H115.28V213H93.94Z" fill="#272727"/>
<path d="M366.36 175.16V159.76L445.12 59H468.88L390.78 159.76L379.56 156.24H502.54V175.16H366.36ZM451.94 213V175.16L452.6 156.24V122.8H473.28V213H451.94Z" fill="#272727"/>
</svg>
