<svg width="155" height="16" viewBox="0 0 155 16" fill="none" xmlns="http://www.w3.org/2000/svg">
<path d="M0.15625 15.4482V0.440674H3.11324L6.62721 11.0668C6.95124 12.0563 7.18756 12.7968 7.33607 13.2882C7.50482 12.7422 7.76816 11.9403 8.12597 10.8825L11.6804 0.440674H14.3235V15.4482H12.4298V2.88733L8.11581 15.4482H6.34363L2.04994 2.67235V15.4482H0.15625Z" fill="#3873C4"/>
<path d="M17.0391 10.0124C17.0391 7.99911 17.5927 6.50791 18.6999 5.53881C19.6248 4.73347 20.7522 4.33081 22.0822 4.33081C23.5607 4.33081 24.7691 4.82219 25.7075 5.80496C26.646 6.7809 27.1152 8.13219 27.1152 9.85881C27.1152 11.2579 26.9058 12.3601 26.4873 13.1654C26.0755 13.9639 25.4712 14.5849 24.6746 15.0286C23.8847 15.4722 23.0206 15.694 22.0822 15.694C20.5767 15.694 19.3581 15.206 18.4264 14.2301C17.5016 13.2541 17.0391 11.8482 17.0391 10.0124ZM18.9125 10.0124C18.9125 11.4046 19.2129 12.4488 19.8138 13.1449C20.4146 13.8342 21.1708 14.1789 22.0822 14.1789C22.9868 14.1789 23.7396 13.8308 24.3404 13.1347C24.9413 12.4386 25.2417 11.3773 25.2417 9.95094C25.2417 8.6065 24.9379 7.58962 24.3303 6.90029C23.7294 6.20418 22.9801 5.85616 22.0822 5.85616C21.1708 5.85616 20.4146 6.20076 19.8138 6.89009C19.2129 7.57936 18.9125 8.62013 18.9125 10.0124Z" fill="#3873C4"/>
<path d="M29.4688 4.57648H31.2916V12.8685L36.3448 4.57648H38.3094V15.4483H36.4865V7.20742L31.4334 15.4483H29.4688V4.57648ZM35.7979 0.461182H37.0435C36.9423 1.31427 36.6317 1.96944 36.1119 2.4267C35.5988 2.88395 34.9136 3.11258 34.0561 3.11258C33.192 3.11258 32.5 2.88737 31.9802 2.43693C31.4671 1.97968 31.1599 1.32109 31.0586 0.461182H32.3043C32.3987 0.92526 32.5844 1.27332 32.8612 1.50536C33.1448 1.73058 33.5228 1.84319 33.9954 1.84319C34.5422 1.84319 34.9541 1.73399 35.2309 1.5156C35.5144 1.29039 35.7034 0.93891 35.7979 0.461182Z" fill="#3873C4"/>
<path d="M41.3906 0.440674H49.016C50.6768 0.440674 51.919 0.839919 52.7426 1.63841C53.573 2.4369 53.9882 3.57322 53.9882 5.04736C53.9882 6.56242 53.5359 7.74653 52.6312 8.59961C51.7333 9.45269 50.3595 9.87922 48.5097 9.87922H45.9983V15.4482H41.3906V0.440674ZM45.9983 6.83884H47.1224C48.0067 6.83884 48.6278 6.68529 48.9856 6.37815C49.3434 6.06422 49.5223 5.66499 49.5223 5.18044C49.5223 4.70953 49.3671 4.31029 49.0565 3.9827C48.746 3.65511 48.162 3.49132 47.3046 3.49132H45.9983V6.83884Z" fill="#3873C4"/>
<path d="M68.2682 11.0463H60.0051C60.0794 11.7151 60.2584 12.2133 60.5416 12.541C60.9401 13.0119 61.4596 13.2473 62.1009 13.2473C62.5064 13.2473 62.8912 13.1449 63.2558 12.9402C63.4785 12.8105 63.718 12.5819 63.9746 12.2543L68.0357 12.6331C67.414 13.725 66.6647 14.5099 65.7871 14.9876C64.9095 15.4585 63.6504 15.694 62.0098 15.694C60.5853 15.694 59.4648 15.4926 58.6478 15.09C57.8313 14.6805 57.1524 14.0356 56.6126 13.1552C56.0794 12.268 55.8125 11.2272 55.8125 10.0329C55.8125 8.33351 56.349 6.95834 57.4225 5.9073C58.5026 4.85631 59.9915 4.33081 61.8886 4.33081C63.4277 4.33081 64.6431 4.56626 65.5338 5.03717C66.4251 5.50807 67.1035 6.19056 67.5696 7.08457C68.0357 7.97864 68.2682 9.14223 68.2682 10.5754V11.0463ZM64.0761 9.05009C63.9948 8.24479 63.7786 7.66807 63.4277 7.32005C63.0833 6.97196 62.6276 6.79795 62.0605 6.79795C61.4056 6.79795 60.8827 7.06068 60.4909 7.5862C60.2415 7.91381 60.0826 8.40176 60.015 9.05009H64.0761Z" fill="#3873C4"/>
<path d="M82.384 15.4483H78.485V10.1046L74.4343 15.4483H70.5156V4.58676H74.4141V10.0022L78.5052 4.58676H82.384V15.4483ZM79.7714 0.184814C79.7512 1.1744 79.4101 1.93535 78.7486 2.46768C78.0866 3.00001 77.3001 3.26617 76.3887 3.26617C75.3223 3.26617 74.4883 2.9966 73.8874 2.45744C73.2871 1.91147 72.946 1.15392 72.8646 0.184814H74.6068C74.8092 0.915059 75.3763 1.28018 76.3079 1.28018C76.821 1.28018 77.2226 1.20852 77.513 1.0652C77.8099 0.915059 78.0091 0.621597 78.1106 0.184814H79.7714Z" fill="#3873C4"/>
<path d="M94.2863 7.62707H91.2988V15.4482H87.1673V7.62707H84.1797V4.58667H94.2863V7.62707Z" fill="#3873C4"/>
<path d="M107.978 15.4482H104.079V10.1045L100.028 15.4482H96.1094V4.58667H100.008V10.0021L104.099 4.58667H107.978V15.4482Z" fill="#3873C4"/>
<path d="M122.963 15.4482H118.831V11.3432H115.085V15.4482H110.953V4.58667H115.085V8.30271H118.831V4.58667H122.963V15.4482Z" fill="#3873C4"/>
<path d="M134.654 7.62707H130.077V15.4482H125.945V4.58667H134.654V7.62707Z" fill="#3873C4"/>
<path d="M139.719 11.0344H144.085V15.4482H139.719V11.0344Z" fill="#3873C4"/>
<path d="M145.172 11.0344H149.538V15.4482H145.172V11.0344Z" fill="#3873C4"/>
<path d="M150.633 11.0344H154.999V15.4482H150.633V11.0344Z" fill="#3873C4"/>
<path d="M150.633 5.51709H154.999V9.93088H150.633V5.51709Z" fill="#3873C4"/>
<path d="M145.172 5.51709H149.538V9.93088H145.172V5.51709Z" fill="#3873C4"/>
<path d="M150.633 0H154.999V4.41379H150.633V0Z" fill="#3873C4"/>
</svg>
